<svg width="152" height="90" viewBox="0 0 152 90" fill="none" xmlns="http://www.w3.org/2000/svg">
<path d="M43.05 9.136H16.17L13.866 17.632H35.898L33.834 25.408H11.802L9.498 34H0.762L9.786 0.399998H45.402L43.05 9.136ZM71.8579 29.824C72.1139 30.88 71.7939 31.904 70.8979 32.896C70.0339 33.856 69.0259 34.336 67.8739 34.336H45.1699L51.7939 25.6H61.2019L58.6099 14.08L36.2899 43.6H26.5459L56.8819 3.568C57.5219 2.704 58.3219 2.016 59.2819 1.504C60.2419 0.991999 61.2019 0.735999 62.1619 0.735999C63.1539 0.735999 63.9859 0.991999 64.6579 1.504C65.3299 2.016 65.7619 2.704 65.9539 3.568L71.8579 29.824ZM103.441 10.24C106.705 10.24 109.185 11.408 110.881 13.744C112.609 16.048 113.025 18.848 112.129 22.144C111.265 25.408 109.361 28.208 106.417 30.544C103.473 32.848 100.369 34 97.1048 34H75.0248L77.3768 25.264H99.4088C99.9848 25.264 100.545 25.136 101.089 24.88C101.665 24.592 102.161 24.208 102.577 23.728C102.993 23.216 103.281 22.688 103.441 22.144C103.665 21.28 103.553 20.544 103.105 19.936C102.657 19.296 101.985 18.976 101.089 18.976H94.1288L90.8168 24.16H85.2008C81.9048 24.16 79.4088 23.008 77.7128 20.704C76.0168 18.368 75.6008 15.568 76.4648 12.304C77.3608 9.008 79.2808 6.208 82.2248 3.904C85.1688 1.568 88.2728 0.399998 91.5368 0.399998H113.617L111.265 9.136H89.2328C88.7848 9.136 88.3368 9.216 87.8888 9.376C87.4728 9.536 87.0888 9.76 86.7368 10.048C86.3848 10.336 86.0648 10.672 85.7768 11.056C85.5208 11.44 85.3288 11.84 85.2008 12.256C84.9768 13.12 85.0888 13.872 85.5368 14.512C85.9848 15.12 86.6408 15.424 87.5048 15.424H94.4648L97.7768 10.24H103.441ZM136.73 9.136L134.042 19.216C133.594 20.88 133.802 22.304 134.666 23.488C135.53 24.672 136.794 25.264 138.458 25.264H144.986L142.682 34H136.106C133.45 34 131.162 33.344 129.242 32.032C127.322 30.688 126.01 28.896 125.306 26.656C124.602 24.384 124.602 21.904 125.306 19.216L127.994 9.136H115.754L118.058 0.399998H151.658L149.354 9.136H136.73ZM41.2406 71.264H59.8166L57.4646 80H30.1526L39.1766 46.4H47.9126L41.2406 71.264ZM96.4673 75.824C96.7233 76.88 96.4033 77.904 95.5073 78.896C94.6433 79.856 93.6353 80.336 92.4833 80.336H69.7793L76.4033 71.6H85.8113L83.2193 60.08L60.8992 89.6H51.1552L81.4913 49.568C82.1313 48.704 82.9313 48.016 83.8913 47.504C84.8513 46.992 85.8113 46.736 86.7712 46.736C87.7633 46.736 88.5953 46.992 89.2673 47.504C89.9393 48.016 90.3713 48.704 90.5633 49.568L96.4673 75.824ZM130.217 46.4C133.673 46.4 136.297 47.632 138.089 50.096C139.881 52.528 140.313 55.472 139.385 58.928C138.457 62.352 136.441 65.296 133.337 67.76C130.265 70.192 127.001 71.408 123.545 71.408H109.865L107.561 80H98.8245L101.129 71.408L102.089 67.904L107.849 46.4H130.217ZM128.489 62.384C129.545 61.552 130.217 60.56 130.505 59.408C130.825 58.224 130.681 57.216 130.073 56.384C129.465 55.552 128.585 55.136 127.432 55.136H114.233L111.929 63.632H125.129C126.313 63.632 127.433 63.216 128.489 62.384Z" fill="white"/>
</svg>
